<svg width="60" height="24" viewBox="0 0 60 24" fill="none" xmlns="http://www.w3.org/2000/svg">
<path d="M36 7.624V8.98H32.508V11.128H35.184V12.46H32.508V16H30.828V7.624H36ZM38.0433 8.56C37.7473 8.56 37.4993 8.468 37.2993 8.284C37.1073 8.092 37.0113 7.856 37.0113 7.576C37.0113 7.296 37.1073 7.064 37.2993 6.88C37.4993 6.688 37.7473 6.592 38.0433 6.592C38.3393 6.592 38.5833 6.688 38.7753 6.88C38.9753 7.064 39.0753 7.296 39.0753 7.576C39.0753 7.856 38.9753 8.092 38.7753 8.284C38.5833 8.468 38.3393 8.56 38.0433 8.56ZM38.8713 9.352V16H37.1913V9.352H38.8713ZM42.2111 7.12V16H40.5311V7.12H42.2111ZM45.827 10.732V13.948C45.827 14.172 45.879 14.336 45.983 14.44C46.095 14.536 46.279 14.584 46.535 14.584H47.315V16H46.259C44.843 16 44.135 15.312 44.135 13.936V10.732H43.343V9.352H44.135V7.708H45.827V9.352H47.315V10.732H45.827ZM54.7033 12.532C54.7033 12.772 54.6873 12.988 54.6553 13.18H49.7953C49.8353 13.66 50.0033 14.036 50.2993 14.308C50.5953 14.58 50.9593 14.716 51.3913 14.716C52.0153 14.716 52.4593 14.448 52.7233 13.912H54.5353C54.3433 14.552 53.9753 15.08 53.4313 15.496C52.8873 15.904 52.2193 16.108 51.4273 16.108C50.7873 16.108 50.2113 15.968 49.6993 15.688C49.1953 15.4 48.7993 14.996 48.5113 14.476C48.2313 13.956 48.0913 13.356 48.0913 12.676C48.0913 11.988 48.2313 11.384 48.5113 10.864C48.7913 10.344 49.1833 9.944 49.6873 9.664C50.1913 9.384 50.7713 9.244 51.4273 9.244C52.0593 9.244 52.6233 9.38 53.1193 9.652C53.6233 9.924 54.0113 10.312 54.2833 10.816C54.5633 11.312 54.7033 11.884 54.7033 12.532ZM52.9633 12.052C52.9553 11.62 52.7993 11.276 52.4953 11.02C52.1913 10.756 51.8193 10.624 51.3793 10.624C50.9633 10.624 50.6113 10.752 50.3233 11.008C50.0433 11.256 49.8713 11.604 49.8073 12.052H52.9633ZM57.6096 10.384C57.8256 10.032 58.1056 9.756 58.4496 9.556C58.8016 9.356 59.2016 9.256 59.6496 9.256V11.02H59.2056C58.6776 11.02 58.2776 11.144 58.0056 11.392C57.7416 11.64 57.6096 12.072 57.6096 12.688V16H55.9296V9.352H57.6096V10.384Z" fill="#0065DE"/>
<path d="M21 6H19M21 12H16M21 18H16M7 20V13.5612C7 13.3532 7 13.2492 6.97958 13.1497C6.96147 13.0615 6.93151 12.9761 6.89052 12.8958C6.84431 12.8054 6.77934 12.7242 6.64939 12.5617L3.35061 8.43826C3.22066 8.27583 3.15569 8.19461 3.10948 8.10417C3.06849 8.02393 3.03853 7.93852 3.02042 7.85026C3 7.75078 3 7.64677 3 7.43875V5.6C3 5.03995 3 4.75992 3.10899 4.54601C3.20487 4.35785 3.35785 4.20487 3.54601 4.10899C3.75992 4 4.03995 4 4.6 4H13.4C13.9601 4 14.2401 4 14.454 4.10899C14.6422 4.20487 14.7951 4.35785 14.891 4.54601C15 4.75992 15 5.03995 15 5.6V7.43875C15 7.64677 15 7.75078 14.9796 7.85026C14.9615 7.93852 14.9315 8.02393 14.8905 8.10417C14.8443 8.19461 14.7793 8.27583 14.6494 8.43826L11.3506 12.5617C11.2207 12.7242 11.1557 12.8054 11.1095 12.8958C11.0685 12.9761 11.0385 13.0615 11.0204 13.1497C11 13.2492 11 13.3532 11 13.5612V17L7 20Z" stroke="#0065DE" stroke-width="2.2" stroke-linecap="round" stroke-linejoin="round"/>
</svg>
