<svg width="18" height="21" viewBox="0 0 18 21" fill="none" xmlns="http://www.w3.org/2000/svg">
<path d="M17.0285 6.25L10.7785 0H2.44515C1.89262 0 1.36271 0.219493 0.97201 0.610194C0.58131 1.00089 0.361816 1.5308 0.361816 2.08333V18.75C0.361816 19.3025 0.58131 19.8324 0.97201 20.2231C1.36271 20.6138 1.89262 20.8333 2.44515 20.8333H14.9451C15.4977 20.8333 16.0276 20.6138 16.4183 20.2231C16.809 19.8324 17.0285 19.3025 17.0285 18.75V6.25ZM5.57015 17.7083H3.48682V8.33333H5.57015V17.7083ZM9.73682 17.7083H7.65348V11.4583H9.73682V17.7083ZM13.9035 17.7083H11.8201V14.5833H13.9035V17.7083ZM10.7785 7.29167H9.73682V2.08333L14.9451 7.29167H10.7785Z" fill="white"/>
</svg>
