<svg width="24" height="24" viewBox="0 0 24 24" fill="none" xmlns="http://www.w3.org/2000/svg">
<g clip-path="url(#clip0_481_1955)">
<path d="M15.5 16.5C15.7652 16.5 16.0196 16.3946 16.2071 16.2071C16.3946 16.0196 16.5 15.7652 16.5 15.5V14H17.25C17.4489 14 17.6397 13.921 17.7803 13.7803C17.921 13.6397 18 13.4489 18 13.25C18 13.0511 17.921 12.8603 17.7803 12.7197C17.6397 12.579 17.4489 12.5 17.25 12.5H16.5V11.5H17.25C17.4489 11.5 17.6397 11.421 17.7803 11.2803C17.921 11.1397 18 10.9489 18 10.75C18 10.5511 17.921 10.3603 17.7803 10.2197C17.6397 10.079 17.4489 10 17.25 10H16.5V8.5C16.5 8.23478 16.3946 7.98043 16.2071 7.79289C16.0196 7.60536 15.7652 7.5 15.5 7.5H14V6.75C14 6.55109 13.921 6.36032 13.7803 6.21967C13.6397 6.07902 13.4489 6 13.25 6C13.0511 6 12.8603 6.07902 12.7197 6.21967C12.579 6.36032 12.5 6.55109 12.5 6.75V7.5H11.5V6.75C11.5 6.55109 11.421 6.36032 11.2803 6.21967C11.1397 6.07902 10.9489 6 10.75 6C10.5511 6 10.3603 6.07902 10.2197 6.21967C10.079 6.36032 10 6.55109 10 6.75V7.5H8.5C8.23478 7.5 7.98043 7.60536 7.79289 7.79289C7.60536 7.98043 7.5 8.23478 7.5 8.5V10H6.75C6.55109 10 6.36032 10.079 6.21967 10.2197C6.07902 10.3603 6 10.5511 6 10.75C6 10.9489 6.07902 11.1397 6.21967 11.2803C6.36032 11.421 6.55109 11.5 6.75 11.5H7.5V12.5H6.75C6.55109 12.5 6.36032 12.579 6.21967 12.7197C6.07902 12.8603 6 13.0511 6 13.25C6 13.4489 6.07902 13.6397 6.21967 13.7803C6.36032 13.921 6.55109 14 6.75 14H7.5V15.5C7.5 15.7652 7.60536 16.0196 7.79289 16.2071C7.98043 16.3946 8.23478 16.5 8.5 16.5H10V17.25C10 17.4489 10.079 17.6397 10.2197 17.7803C10.3603 17.921 10.5511 18 10.75 18C10.9489 18 11.1397 17.921 11.2803 17.7803C11.421 17.6397 11.5 17.4489 11.5 17.25V16.5H12.5V17.25C12.5 17.4489 12.579 17.6397 12.7197 17.7803C12.8603 17.921 13.0511 18 13.25 18C13.4489 18 13.6397 17.921 13.7803 17.7803C13.921 17.6397 14 17.4489 14 17.25V16.5H15.5ZM9 9H15V15H9V9Z" fill="white"/>
<path d="M13.5 10.5H10.5V13.5H13.5V10.5Z" fill="white"/>
<path d="M22.8 9.34999L20.5 7.44999V3.74999C20.4984 3.65411 20.4693 3.56071 20.4161 3.48093C20.3629 3.40114 20.2879 3.33833 20.2 3.29999L15.25 1.04999H15.05L14.75 1.14999L14.5 1.29999V4.29999C14.5 4.4989 14.579 4.68967 14.7197 4.83032C14.8603 4.97097 15.0511 5.04999 15.25 5.04999C15.4489 5.04999 15.6397 4.97097 15.7803 4.83032C15.921 4.68967 16 4.4989 16 4.29999V3.59999L18.5 4.74999V8.44999L19.25 9.04999L21 10.45V13.55L19.25 14.95L18.5 15.55V19.25L16 20.4V19.75C16 19.5511 15.921 19.3603 15.7803 19.2197C15.6397 19.079 15.4489 19 15.25 19C15.0511 19 14.8603 19.079 14.7197 19.2197C14.579 19.3603 14.5 19.5511 14.5 19.75V22.75L14.75 22.9L15.05 23H15.25L20.2 20.75C20.2879 20.7116 20.3629 20.6488 20.4161 20.5691C20.4693 20.4893 20.4984 20.3959 20.5 20.3V16.55L22.8 14.65C22.8653 14.6065 22.9181 14.5468 22.9532 14.4766C22.9883 14.4064 23.0044 14.3283 23 14.25V9.74999C23.0103 9.67098 22.9968 9.59069 22.9611 9.51943C22.9255 9.44816 22.8694 9.38916 22.8 9.34999Z" fill="white"/>
<path d="M8.94993 1H8.74993L3.79993 3.3C3.71204 3.33834 3.63703 3.40115 3.58384 3.48094C3.53065 3.56072 3.50152 3.65412 3.49993 3.75V7.45L1.19993 9.35C1.13055 9.38917 1.07444 9.44817 1.03881 9.51944C1.00318 9.59071 0.989641 9.67099 0.999934 9.75V14.25C0.995514 14.3283 1.01164 14.4064 1.04673 14.4766C1.08181 14.5468 1.13462 14.6065 1.19993 14.65L3.49993 16.55V20.25C3.50152 20.3459 3.53065 20.4393 3.58384 20.5191C3.63703 20.5988 3.71204 20.6617 3.79993 20.7L8.74993 22.95H8.94993L9.24993 22.85L9.49993 22.7V19.7C9.49993 19.5011 9.42092 19.3103 9.28026 19.1697C9.13961 19.029 8.94885 18.95 8.74993 18.95C8.55102 18.95 8.36026 19.029 8.2196 19.1697C8.07895 19.3103 7.99993 19.5011 7.99993 19.7V20.35L5.49993 19.2V15.55L4.74993 14.95L2.99993 13.55V10.45L4.74993 9.05L5.49993 8.45V4.75L7.99993 3.6V4.25C7.99993 4.44891 8.07895 4.63968 8.2196 4.78033C8.36026 4.92098 8.55102 5 8.74993 5C8.94885 5 9.13961 4.92098 9.28026 4.78033C9.42092 4.63968 9.49993 4.44891 9.49993 4.25V1.25L9.24993 1.1L8.94993 1Z" fill="white"/>
</g>
<defs>
<clipPath id="clip0_481_1955">
<rect width="24" height="24" fill="white"/>
</clipPath>
</defs>
</svg>
