<svg width="21" height="20" viewBox="0 0 21 20" fill="none" xmlns="http://www.w3.org/2000/svg">
<path d="M5.2779 5.24631L9.28064 9.2004M5.2779 5.24631H2.60941L1.71991 2.61025L2.60941 1.73157L5.2779 2.61025V5.24631ZM17.0717 2.38268L14.7345 4.69153C14.3823 5.03951 14.206 5.21349 14.1401 5.41412C14.0821 5.59061 14.0821 5.7807 14.1401 5.95719C14.206 6.15782 14.3823 6.3318 14.7345 6.67977L14.9455 6.88825C15.2977 7.23623 15.4739 7.41021 15.677 7.4754C15.8556 7.53274 16.0481 7.53274 16.2267 7.4754C16.4298 7.41021 16.606 7.23623 16.9582 6.88825L19.1445 4.72852C19.38 5.29453 19.5099 5.91445 19.5099 6.56434C19.5099 9.23344 17.3196 11.3971 14.6176 11.3971C14.2919 11.3971 13.9735 11.3657 13.6657 11.3056C13.2332 11.2215 13.017 11.1793 12.8859 11.1922C12.7466 11.2059 12.6779 11.2266 12.5544 11.2918C12.4383 11.3533 12.3218 11.4683 12.0888 11.6985L5.72265 17.9873C4.98576 18.7152 3.79104 18.7152 3.05416 17.9873C2.31727 17.2594 2.31727 16.0791 3.05416 15.3512L9.42029 9.06244C9.65334 8.83223 9.76977 8.71716 9.83195 8.60244C9.89804 8.48047 9.91894 8.41263 9.93282 8.27497C9.94589 8.14549 9.9032 7.93191 9.81798 7.50474C9.75723 7.20056 9.72539 6.88612 9.72539 6.56434C9.72539 3.89527 11.9157 1.73157 14.6176 1.73157C15.512 1.73157 16.3504 1.96865 17.0717 2.38268ZM10.615 13.1544L15.5071 17.9872C16.244 18.7151 17.4387 18.7151 18.1756 17.9872C18.9125 17.2593 18.9125 16.079 18.1756 15.3511L14.1509 11.3754C13.866 11.3488 13.5882 11.298 13.3197 11.2252C12.9736 11.1313 12.5939 11.1995 12.3402 11.4501L10.615 13.1544Z" stroke="#0065DE" stroke-width="1.5" stroke-linecap="round" stroke-linejoin="round"/>
</svg>
