<svg width="16" height="21" viewBox="0 0 16 21" fill="none" xmlns="http://www.w3.org/2000/svg">
<path d="M7.99807 0.953186C4.11106 0.953186 1.29705 2.12019 0.302049 3.78119C0.0440479 4.21119 -0.00195312 4.67719 -0.00195312 4.95319V16.9532C-0.00195312 17.2292 0.0760462 17.6822 0.319047 18.1282C1.19605 19.7332 4.11106 20.9532 7.99807 20.9532C11.8841 20.9532 14.5921 19.8172 15.6301 18.2302C15.8541 17.8872 16.0041 17.3762 15.9981 16.9532V4.95319C15.9981 4.67719 15.9611 4.38719 15.8361 4.08319C15.0421 2.16519 11.8841 0.953186 7.99807 0.953186ZM7.99807 2.95319C9.75107 2.95319 11.3881 3.2632 12.5601 3.7652C13.5371 4.1842 13.9981 4.64319 13.9981 4.95319C13.9981 5.26319 13.5371 5.72217 12.5601 6.14117C11.3881 6.64317 9.75107 6.95319 7.99807 6.95319C6.24506 6.95319 4.60705 6.64317 3.43505 6.14117C2.45805 5.72217 1.99805 5.26319 1.99805 4.95319C1.99805 4.64319 2.45805 4.1842 3.43505 3.7652C4.60705 3.2632 6.24506 2.95319 7.99807 2.95319ZM1.99405 7.66119C3.47006 8.50519 5.57906 8.95319 7.99807 8.95319C10.4161 8.95319 12.5161 8.51518 13.9931 7.67218L13.9981 10.9532C13.9981 11.2632 13.5371 11.7222 12.5601 12.1412C11.3881 12.6432 9.75107 12.9532 7.99807 12.9532C6.24506 12.9532 4.60705 12.6432 3.43505 12.1412C2.45805 11.7222 1.99805 11.2632 1.99805 10.9532L1.99405 7.66119ZM1.99906 13.6712C3.42606 14.4452 5.57906 14.9532 7.99807 14.9532C10.4161 14.9532 12.4811 14.4822 13.9941 13.6722L13.9981 16.9532C13.9981 17.2632 13.5371 17.7222 12.5601 18.1412C11.3881 18.6432 9.75107 18.9532 7.99807 18.9532C6.24506 18.9532 4.60705 18.6432 3.43505 18.1412C2.45805 17.7222 1.99805 17.2632 1.99805 16.9532L1.99906 13.6712Z" fill="white"/>
</svg>
