<svg width="27" height="24" viewBox="0 0 27 24" fill="none" xmlns="http://www.w3.org/2000/svg">
<path d="M12.7905 3.41037C13.374 3.08961 14.0836 3.08961 14.6672 3.41036L21.9268 7.40058C22.2335 7.56916 22.4238 7.889 22.4238 8.23611V16.1071C22.4238 16.8013 22.0433 17.441 21.4299 17.7782L14.6672 21.4953C14.0836 21.816 13.374 21.816 12.7905 21.4953L6.02777 17.7782C5.41437 17.441 5.03394 16.8013 5.03394 16.1071V8.23611C5.03394 7.889 5.22415 7.56916 5.53086 7.40058L12.7905 3.41037Z" stroke="white" stroke-width="2" stroke-linecap="round" stroke-linejoin="round"/>
<path d="M5.03394 7.69812L13.7289 12.5283M13.7289 12.5283L22.4238 7.69812M13.7289 12.5283V22.1887" stroke="white" stroke-width="2" stroke-linejoin="round"/>
<path d="M9.61011 9.96226L18.305 5.43396" stroke="white" stroke-width="2" stroke-linecap="round" stroke-linejoin="round"/>
<path d="M7.77954 12.6793L10.9829 14.4906" stroke="white" stroke-width="2" stroke-linecap="round" stroke-linejoin="round"/>
</svg>
