<svg width="25" height="25" viewBox="0 0 25 25" fill="none" xmlns="http://www.w3.org/2000/svg">
<path d="M20.6667 8.25L14.4167 2H6.08333C5.5308 2 5.00089 2.21949 4.61019 2.61019C4.21949 3.00089 4 3.5308 4 4.08333V20.75C4 21.3025 4.21949 21.8324 4.61019 22.2231C5.00089 22.6138 5.5308 22.8333 6.08333 22.8333H18.5833C19.1359 22.8333 19.6658 22.6138 20.0565 22.2231C20.4472 21.8324 20.6667 21.3025 20.6667 20.75V8.25ZM9.20833 19.7083H7.125V10.3333H9.20833V19.7083ZM13.375 19.7083H11.2917V13.4583H13.375V19.7083ZM17.5417 19.7083H15.4583V16.5833H17.5417V19.7083ZM14.4167 9.29167H13.375V4.08333L18.5833 9.29167H14.4167Z" fill="white"/>
</svg>
