<svg width="24" height="24" viewBox="0 0 24 24" fill="none" xmlns="http://www.w3.org/2000/svg">
<path d="M12.9817 20.5134C12.9852 20.5129 12.9885 20.5122 12.992 20.5118L12.9875 20.5073L12.9817 20.5134Z" fill="white"/>
<path d="M18.7769 2.56451V4.27428H19.6619V6.83881H4.27446V4.27428H5.12103V2.56451H2.5647V22.2262H13.6778V20.5165H4.27446V8.54858H21.3717V2.56451H18.7769Z" fill="white"/>
<path d="M8.54883 2.56454H15.3865V4.27431H8.54883V2.56454ZM5.9843 1.70978H7.69406V5.12931H5.9843V1.70978ZM16.2424 1.70978H17.9522V5.12931H16.2424V1.70978ZM14.5327 13.6777V22.2263H21.3715V13.6777L17.952 9.40337L14.5327 13.6777ZM19.1742 13.6681H16.7297L17.952 12.1402L19.1742 13.6681ZM16.2422 20.5165V15.3778H19.6617V20.5165H16.2422ZM5.12109 10.2495H13.6697V11.9592H5.12109V10.2495ZM5.12883 13.677H11.0899V15.3867H5.12883V13.677ZM5.12883 17.1045H11.1136V18.8142H5.12883V17.1045Z" fill="white"/>
</svg>
