<svg width="21" height="20" viewBox="0 0 21 20" fill="none" xmlns="http://www.w3.org/2000/svg">
<path d="M8.85443 18.8559C9.00488 19.2328 9.18215 19.5965 9.38392 19.9448C9.74375 19.9813 10.109 20 10.4786 20C11.2775 20 12.0555 19.9127 12.8034 19.7472C11.7716 18.7291 11.134 17.3261 11.134 15.777C11.134 12.6672 13.7034 10.1463 16.873 10.1463C18.3937 10.1463 19.7764 10.7267 20.8033 11.674C20.9324 11.0279 21 10.3602 21 9.677C21 9.21528 20.9691 8.76067 20.9092 8.31498C20.2883 7.99101 19.6222 7.73946 18.9225 7.57178L18.8218 5.15365C18.2009 5.04474 17.562 4.98692 16.9097 4.98485L16.3659 7.34534C15.3974 7.40052 14.4718 7.61283 13.6154 7.95663L12.0849 6.05812C11.5055 6.33344 10.9543 6.6572 10.437 7.024L11.4115 9.24808C10.6823 9.83596 10.0533 10.5391 9.55355 11.3292L7.17733 10.6756C6.8761 11.2256 6.62204 11.8042 6.42049 12.4062L8.5415 13.6437C8.36076 14.3251 8.26456 15.0401 8.26456 15.777L8.28757 16.3995L5.9737 17.2411C6.06096 17.8724 6.20386 18.4863 6.39738 19.0779L8.85443 18.8559ZM7.1763 9.43265L9.55249 10.0862C9.85376 9.53617 10.1078 8.95757 10.3093 8.35561L8.18835 7.11809C8.36909 6.43666 8.4653 5.72176 8.4653 4.98479L8.44225 4.36232L10.7561 3.52068C10.6689 2.88944 10.526 2.27551 10.3325 1.68387L7.87543 1.90587C7.60274 1.22277 7.242 0.582994 6.8069 0C5.88577 0.33659 5.02565 0.796162 4.2473 1.35837C5.08878 2.33804 5.59583 3.60333 5.59583 4.98479C5.59583 8.04761 3.10338 10.5393 0 10.6138C0.0891196 11.5858 0.315572 12.519 0.660173 13.3946C1.52134 13.3164 2.34572 13.1138 3.1145 12.8052L4.64489 14.7037C5.22437 14.4284 5.77552 14.1046 6.29284 13.7378L5.31837 11.5137C6.04755 10.9259 6.67653 10.2227 7.1763 9.43265Z" fill="#0065DE"/>
</svg>
