<svg width="21" height="21" viewBox="0 0 21 21" fill="none" xmlns="http://www.w3.org/2000/svg">
<path d="M8.75526 20.0438C9.92464 21.2131 10.9927 21.2039 12.1529 20.0438L13.5708 18.635C13.7181 18.4969 13.847 18.4416 14.0404 18.4416H16.0292C17.6774 18.4416 18.4417 17.6866 18.4417 16.0293V14.0404C18.4417 13.8471 18.4969 13.7182 18.6349 13.5708L20.0345 12.1529C21.2131 10.9927 21.2038 9.92465 20.0345 8.75527L18.6349 7.33729C18.4969 7.19916 18.4417 7.06107 18.4417 6.87694V4.87887C18.4417 3.23991 17.6866 2.46649 16.0292 2.46649H14.0404C13.847 2.46649 13.7181 2.42045 13.5708 2.28232L12.1529 0.873575C10.9927 -0.295803 9.92464 -0.286571 8.75526 0.873575L7.33728 2.28232C7.19919 2.42045 7.06106 2.46649 6.87689 2.46649H4.87886C3.2307 2.46649 2.46648 3.22153 2.46648 4.87887V6.87694C2.46648 7.06107 2.42044 7.19916 2.28235 7.33729L0.873561 8.75527C-0.295779 9.92465 -0.286586 10.9927 0.873561 12.1529L2.28235 13.5708C2.42044 13.7182 2.46648 13.8471 2.46648 14.0404V16.0293C2.46648 17.6774 3.2307 18.4416 4.87886 18.4416H6.87689C7.06106 18.4416 7.19919 18.4969 7.33728 18.635L8.75526 20.0438ZM9.78651 19.0125L8.05546 17.2723C7.8529 17.0605 7.64115 16.9777 7.3557 16.9777H4.87886C4.0594 16.9777 3.93046 16.8487 3.93046 16.0293V13.5524C3.93046 13.2762 3.84761 13.0644 3.64505 12.8618L1.90481 11.1308C1.32476 10.5415 1.32476 10.3758 1.90481 9.78652L3.64505 8.05551C3.84761 7.85292 3.93046 7.64117 3.93046 7.35572V4.87887C3.93046 4.05018 4.0502 3.93051 4.87886 3.93051H7.3557C7.64115 3.93051 7.8529 3.85681 8.05546 3.64506L9.78651 1.90483C10.3758 1.32473 10.5415 1.32473 11.1308 1.90483L12.8618 3.64506C13.0644 3.85681 13.2762 3.93051 13.5524 3.93051H16.0292C16.8487 3.93051 16.9776 4.05937 16.9776 4.87887V7.35572C16.9776 7.64117 17.0697 7.85292 17.2723 8.05551L19.0124 9.78652C19.5925 10.3758 19.5925 10.5415 19.0124 11.1308L17.2723 12.8618C17.0697 13.0644 16.9776 13.2762 16.9776 13.5524V16.0293C16.9776 16.8487 16.8487 16.9777 16.0292 16.9777H13.5524C13.2762 16.9777 13.0644 17.0605 12.8618 17.2723L11.1308 19.0125C10.5415 19.5926 10.3758 19.5926 9.78651 19.0125ZM9.02228 14.8691C9.28931 14.8691 9.49187 14.7586 9.62999 14.5929L14.7402 7.4478C14.8415 7.30044 14.8967 7.13474 14.8967 6.97822C14.8967 6.57307 14.5837 6.25081 14.1601 6.25081C13.8563 6.25081 13.6905 6.35209 13.5064 6.61911L8.99467 12.9724L6.66514 10.4034C6.50863 10.2285 6.33369 10.1548 6.10347 10.1548C5.65232 10.1548 5.33005 10.4587 5.33005 10.8822C5.33005 11.0664 5.39448 11.2413 5.52342 11.3702L8.45142 14.6297C8.58955 14.777 8.76449 14.8691 9.02228 14.8691Z" fill="white"/>
</svg>
