<svg width="16" height="18" viewBox="0 0 16 18" fill="none" xmlns="http://www.w3.org/2000/svg">
<path d="M15.7231 14.5835L11.2285 9.98926L8.90283 12.3648L13.4007 16.959C13.7698 17.3361 14.3774 17.3361 14.7465 16.959L15.7231 15.9614C16.0923 15.5811 16.0923 14.9572 15.7231 14.5835Z" fill="#0065DE"/>
<path d="M9.00432 11.3404L10.2227 10.0959L8.83447 8.67793C10.1476 6.74614 9.96465 4.07033 8.27917 2.34874C6.38791 0.416956 3.3142 0.416956 1.41967 2.34874C-0.474857 4.28053 -0.47159 7.4201 1.41967 9.35522C3.10515 11.0768 5.72482 11.2637 7.61609 9.92241L9.00432 11.3404ZM2.3604 8.38099C0.988503 6.97969 0.988503 4.70759 2.3604 3.30963C3.7323 1.90833 5.95674 1.90833 7.32537 3.30963C8.69727 4.71093 8.69727 6.98303 7.32537 8.38099C5.95674 9.78228 3.7323 9.78228 2.3604 8.38099Z" fill="#0065DE"/>
</svg>
