<svg width="24" height="21" viewBox="0 0 24 21" fill="none" xmlns="http://www.w3.org/2000/svg">
<path d="M10 13.8213L10 10.8213" stroke="white" stroke-width="2" stroke-linecap="round"/>
<path d="M14 13.8213L14 10.8213" stroke="white" stroke-width="2" stroke-linecap="round"/>
<path d="M3 5.82129H21V5.82129C20.0681 5.82129 19.6022 5.82129 19.2346 5.97353C18.7446 6.17652 18.3552 6.56587 18.1522 7.05592C18 7.42346 18 7.88941 18 8.82129V14.8213C18 16.7069 18 17.6497 17.4142 18.2355C16.8284 18.8213 15.8856 18.8213 14 18.8213H10C8.11438 18.8213 7.17157 18.8213 6.58579 18.2355C6 17.6497 6 16.7069 6 14.8213V8.82129C6 7.88941 6 7.42346 5.84776 7.05592C5.64477 6.56587 5.25542 6.17652 4.76537 5.97353C4.39782 5.82129 3.93188 5.82129 3 5.82129V5.82129Z" stroke="white" stroke-width="2" stroke-linecap="round"/>
<path d="M10.0681 2.19188C10.1821 2.08556 10.4332 1.99162 10.7825 1.92461C11.1318 1.85761 11.5597 1.82129 12 1.82129C12.4403 1.82129 12.8682 1.85761 13.2175 1.92461C13.5668 1.99162 13.8179 2.08556 13.9319 2.19188" stroke="white" stroke-width="2" stroke-linecap="round"/>
</svg>
